<?xml version="1.0" encoding="iso-8859-1"?>
<!-- Generator: Adobe Illustrator 18.1.1, SVG Export Plug-In . SVG Version: 6.00 Build 0)  -->
<svg version="1.1" id="Capa_1" xmlns="http://www.w3.org/2000/svg" xmlns:xlink="http://www.w3.org/1999/xlink" x="0px" y="0px"
	 viewBox="0 0 48.522 48.522" style="enable-background:new 0 0 48.522 48.522;" xml:space="preserve">
<g>
	<g>
		<path style="fill:#010002;" d="M34.977,13.688c-0.021,0.025-2.108,2.52-4.453,2.595c-1.025,0.026-1.911-0.393-2.727-1.26
			c-2.671-2.836-8.961-3.525-12.59-2.225c-2.012,0.721-2.496,1.791-2.548,2.562c-0.018,0.275,0.191,0.514,0.466,0.532
			c0.248,0.022,0.514-0.19,0.532-0.466c0.061-0.901,1.208-1.444,1.887-1.688c3.274-1.174,9.147-0.558,11.524,1.969
			c0.984,1.046,2.109,1.575,3.347,1.575c0.047,0,0.094,0,0.141-0.002c2.791-0.09,5.096-2.84,5.192-2.957
			c0.176-0.213,0.146-0.527-0.067-0.704C35.47,13.445,35.155,13.474,34.977,13.688z"/>
		<path style="fill:#010002;" d="M34.977,27.963c-0.021,0.025-2.108,2.52-4.453,2.595c-1.025,0.026-1.911-0.393-2.727-1.26
			c-2.669-2.836-8.96-3.525-12.591-2.224c-2.011,0.72-2.495,1.79-2.547,2.562c-0.018,0.275,0.19,0.514,0.466,0.532
			c0.248,0.03,0.514-0.19,0.532-0.466c0.061-0.901,1.208-1.444,1.887-1.687c3.276-1.175,9.148-0.558,11.524,1.968
			c0.984,1.046,2.109,1.575,3.347,1.575c0.047,0,0.094,0,0.141-0.002c2.791-0.09,5.096-2.84,5.192-2.957
			c0.176-0.213,0.146-0.527-0.067-0.704C35.47,27.719,35.155,27.749,34.977,27.963z"/>
		<path style="fill:#010002;" d="M34.977,21.4c-0.021,0.025-2.108,2.52-4.453,2.595c-1.025,0.037-1.911-0.392-2.727-1.26
			c-2.669-2.837-8.96-3.524-12.591-2.224c-2.011,0.72-2.495,1.79-2.547,2.562c-0.018,0.275,0.19,0.514,0.466,0.532
			c0.248,0.02,0.514-0.189,0.532-0.466c0.061-0.901,1.208-1.444,1.887-1.687c3.276-1.175,9.148-0.557,11.524,1.968
			c0.984,1.046,2.109,1.575,3.347,1.575c0.047,0,0.094,0,0.141-0.002c2.791-0.09,5.096-2.84,5.192-2.957
			c0.176-0.213,0.146-0.527-0.067-0.704C35.47,21.157,35.155,21.185,34.977,21.4z"/>
		<path style="fill:#010002;" d="M24.979,0C13.094,0,3.425,9.669,3.425,21.554c0,5.728,2.261,10.927,5.918,14.791
			c-0.5,1.844-1.85,5.231-4.115,5.85c-1.653,0.45-2.936,1.653-3.193,2.992c-0.188,0.979,0.185,1.931,0.997,2.543
			c0.733,0.552,1.76,0.792,2.994,0.792c4.22,0,10.85-2.81,16.369-5.584c0.849,0.102,1.708,0.17,2.584,0.17
			c11.886,0,21.555-9.669,21.555-21.554C46.533,9.669,36.864,0,24.979,0z M5.259,45.458c0.172-0.135,0.423-0.278,0.758-0.369
			c3.196-0.872,4.922-4.202,5.763-6.533c1.793,1.395,3.808,2.507,5.986,3.284C9.562,45.616,6.307,45.638,5.259,45.458z
			 M24.979,40.107c-10.23,0-18.554-8.323-18.554-18.554c0-10.23,8.323-18.554,18.554-18.554s18.555,8.323,18.555,18.554
			C43.533,31.784,35.21,40.107,24.979,40.107z"/>
	</g>
</g>
<g>
</g>
<g>
</g>
<g>
</g>
<g>
</g>
<g>
</g>
<g>
</g>
<g>
</g>
<g>
</g>
<g>
</g>
<g>
</g>
<g>
</g>
<g>
</g>
<g>
</g>
<g>
</g>
<g>
</g>
</svg>
